:SAMPLES-PER-SECOND 30
:FULLY-SPECIFIED
:DEGREES
16
root  80.3434 40.0604 22.9209 94.7803 -88.7756 -94.9959
RightUpLeg  -1.63312 -7.16935 -2.16187
RightLeg  6.43041 -5.76009 3.54414
RightFoot  -4.11799 0.162502 -3.08935
RightToes  1.16414e-010 0 -3.6325e-017
Spine  4.50383 0.445395 2.49474
Spine1  -1.69039 0.503051 0.783461
HEad  3.99667 4.7319 -0.482104
LeftShoulder1  2.87757 -4.74087 -28.7499
LeftArm  -36.9768 30.4229 11.0723
LeftForeArm  37.2578 -58.4265 -14.9697
LeftHand  -0.244104 0.0205437 5.32207
RightShoulder  0.409364 -1.10834 9.7591
RightArm  -17.7841 -0.817708 1.11618
RightForeArm  7.10061 1.13975 3.46704
RightHand  -1.13026 4.50439 -13.4986
LeftUpLeg  -3.75962 31.841 10.0989
LeftLeg  14.0217 -27.8477 -10.8573
LeftFoot  -2.18738 0.0606095 -0.477112
LeftToes  9.04034e-010 7.59002e-011 -1.12606e-011
17
root  80.3431 40.0592 22.9212 94.9923 -88.7765 -95.2231
RightUpLeg  -1.62377 -7.18463 -2.17484
RightLeg  6.44738 -5.73478 3.55271
RightFoot  -4.12354 0.161687 -3.07664
RightToes  1.16414e-010 0 -3.6325e-017
Spine  4.46117 0.427191 2.45511
Spine1  -1.56577 0.470969 0.860854
HEad  3.92794 4.65973 -0.505154
LeftShoulder1  2.98388 -4.95726 -29.1257
LeftArm  -37.4629 30.6799 11.5804
LeftForeArm  37.1253 -58.4679 -15.0105
LeftHand  -0.244104 0.0205437 5.32207
RightShoulder  0.408978 -1.09479 9.60016
RightArm  -17.8838 -0.80641 1.23244
RightForeArm  7.40036 1.0981 3.4179
RightHand  -1.13503 4.68517 -13.3921
LeftUpLeg  -3.75951 31.8809 10.0863
LeftLeg  14.0557 -27.8827 -10.8431
LeftFoot  -2.19909 0.0598317 -0.465025
LeftToes  9.04034e-010 7.59002e-011 -1.12606e-011
18
root  80.3407 40.0589 22.9216 95.2723 -88.7861 -95.4978
RightUpLeg  -1.63976 -7.19085 -2.18778
RightLeg  6.48326 -5.70931 3.54717
RightFoot  -4.12548 0.15908 -3.03602
RightToes  1.16414e-010 0 -3.6325e-017
Spine  4.39962 0.428283 2.37506
Spine1  -1.46604 0.451506 0.973646
HEad  3.852 4.64335 -0.564259
LeftShoulder1  3.09023 -5.17023 -29.4966
LeftArm  -37.9308 30.9225 12.0814
LeftForeArm  36.9917 -58.5185 -15.0576
LeftHand  -0.244104 0.0205437 5.32207
RightShoulder  0.408776 -1.0813 9.53483
RightArm  -17.8523 -0.806615 1.22157
RightForeArm  7.2197 1.0849 3.44089
RightHand  -1.13356 4.68432 -13.3612
LeftUpLeg  -3.75504 31.8748 10.0729
LeftLeg  14.0419 -27.8797 -10.8381
LeftFoot  -2.19231 0.0595264 -0.460281
LeftToes  9.04034e-010 7.59002e-011 -1.12606e-011
19
root  80.3373 40.0589 22.922 95.2393 -88.7899 -95.4351
RightUpLeg  -1.68082 -7.18919 -2.1848
RightLeg  6.51472 -5.70847 3.54095
RightFoot  -4.12992 0.159984 -3.05012
RightToes  1.16414e-010 0 -3.6325e-017
Spine  4.14094 0.433348 2.24588
Spine1  -1.09392 0.415604 1.17458
HEad  3.82589 4.56265 -0.633877
LeftShoulder1  3.2009 -5.38517 -29.8901
LeftArm  -38.4175 31.1798 12.5791
LeftForeArm  36.7744 -58.4971 -15.0645
LeftHand  -0.244104 0.0205437 5.32207
RightShoulder  0.404281 -1.08891 9.38194
RightArm  -17.8563 -0.742828 1.31375
RightForeArm  6.7486 1.05471 3.47256
RightHand  -1.12951 4.49859 -13.4801
LeftUpLeg  -3.78949 31.9027 10.0495
LeftLeg  14.0503 -27.91 -10.8387
LeftFoot  -2.1895 0.058791 -0.448852
LeftToes  9.04034e-010 7.59002e-011 -1.12606e-011
20
root  80.3334 40.0593 22.9226 95.2978 -88.7938 -95.453
RightUpLeg  -1.7181 -7.18446 -2.17863
RightLeg  6.50541 -5.7207 3.54054
RightFoot  -4.13392 0.163949 -3.11189
RightToes  1.16414e-010 0 -3.6325e-017
Spine  3.73084 0.460804 2.07839
Spine1  -0.485478 0.385058 1.44341
HEad  4.0232 4.4495 -0.710821
LeftShoulder1  3.31463 -5.59895 -30.3031
LeftArm  -38.9156 31.4318 13.0652
LeftForeArm  36.4815 -58.4014 -15.0289
LeftHand  -0.244104 0.0205437 5.32207
RightShoulder  0.383633 -1.17629 9.09212
RightArm  -17.9925 -0.611949 1.58074
RightForeArm  6.52154 0.99604 3.44719
RightHand  -1.13749 4.3847 -13.7263
LeftUpLeg  -3.84009 31.9421 10.0221
LeftLeg  14.069 -27.9366 -10.8461
LeftFoot  -2.18174 0.0579718 -0.43612
LeftToes  9.04034e-010 7.59002e-011 -1.12606e-011
21
root  80.3288 40.0598 22.9235 96.1844 -88.7939 -96.291
RightUpLeg  -1.76067 -7.14766 -2.15867
RightLeg  6.48033 -5.7495 3.5094
RightFoot  -4.13685 0.164967 -3.12775
RightToes  1.16414e-010 0 -3.6325e-017
Spine  3.44265 0.521798 1.9215
Spine1  -0.088508 0.394127 1.68817
HEad  3.9373 4.39246 -0.817398
LeftShoulder1  3.4265 -5.80923 -30.69
LeftArm  -39.3692 31.6493 13.5369
LeftForeArm  36.2279 -58.3411 -15.0133
LeftHand  -0.244104 0.0205437 5.32207
RightShoulder  0.357629 -1.30548 8.85422
RightArm  -18.1343 -0.543278 1.79361
RightForeArm  6.38591 1.00904 3.41608
RightHand  -1.15574 4.35041 -13.9876
LeftUpLeg  -3.87803 31.9589 10.0049
LeftLeg  14.0567 -27.9197 -10.859
LeftFoot  -2.16763 0.0582956 -0.441153
LeftToes  9.04034e-010 7.59002e-011 -1.12606e-011
22
root  80.3252 40.0604 22.9254 97.277 -88.7859 -97.3318
RightUpLeg  -1.82494 -7.06934 -2.11125
RightLeg  6.48744 -5.80968 3.43291
RightFoot  -4.13763 0.16017 -3.053
RightToes  1.16414e-010 0 -3.6325e-017
Spine  3.43048 0.567588 1.85092
Spine1  -0.141128 0.416634 1.81295
HEad  3.89756 4.33023 -0.915057
LeftShoulder1  3.5372 -6.01983 -31.0454
LeftArm  -39.7737 31.858 14.018
LeftForeArm  36.0718 -58.3932 -15.0636
LeftHand  -0.244104 0.0205437 5.32207
RightShoulder  0.346508 -1.36661 8.79166
RightArm  -18.1624 -0.594399 1.82035
RightForeArm  6.03057 1.12762 3.44053
RightHand  -1.14223 4.19304 -14.0445
LeftUpLeg  -3.91757 31.98 9.99411
LeftLeg  14.0387 -27.9086 -10.8698
LeftFoot  -2.16471 0.0592152 -0.455444
LeftToes  9.04034e-010 7.59002e-011 -1.12606e-011
23
root  80.3239 40.0609 22.9309 96.6402 -88.7755 -96.6848
RightUpLeg  -1.84613 -7.01062 -2.0783
RightLeg  6.50787 -5.87428 3.36787
RightFoot  -4.13213 0.153694 -2.95211
RightToes  1.16414e-010 0 -3.6325e-017
Spine  3.57011 0.560645 1.8718
Spine1  -0.339729 0.409482 1.8309
HEad  3.86668 4.26795 -1.01023
LeftShoulder1  3.65154 -6.23482 -31.405
LeftArm  -40.1738 32.0891 14.52
LeftForeArm  35.9291 -58.4803 -15.1364
LeftHand  -0.244104 0.0205437 5.32207
RightShoulder  0.343845 -1.38161 8.77887
RightArm  -18.1739 -0.635418 1.85497
RightForeArm  5.99528 1.22955 3.45393
RightHand  -1.09869 4.00752 -13.7794
LeftUpLeg  -3.93686 31.9817 9.9847
LeftLeg  14.0461 -27.9218 -10.8672
LeftFoot  -2.16836 0.0586931 -0.447331
LeftToes  9.04034e-010 7.59002e-011 -1.12606e-011
24
root  80.3224 40.0623 22.9412 93.8867 -88.7855 -94.0057
RightUpLeg  -1.74724 -7.03196 -2.11549
RightLeg  6.49615 -5.88919 3.36677
RightFoot  -4.1159 0.150713 -2.90568
RightToes  1.16414e-010 0 -3.6325e-017
Spine  3.73283 0.563736 1.85871
Spine1  -0.426648 0.402946 1.90729
HEad  3.8294 4.19993 -1.11491
LeftShoulder1  3.77035 -6.45159 -31.787
LeftArm  -40.5644 32.2901 15.0136
LeftForeArm  35.7463 -58.5126 -15.1763
LeftHand  -0.244104 0.0205437 5.32207
RightShoulder  0.330459 -1.45928 8.73453
RightArm  -18.3129 -0.621025 1.99667
RightForeArm  6.74733 1.26228 3.37139
RightHand  -1.08188 4.09602 -13.4545
LeftUpLeg  -3.85447 31.8541 9.99615
LeftLeg  14.0221 -27.859 -10.8464
LeftFoot  -2.1566 0.0568483 -0.41866
LeftToes  9.04034e-010 7.59002e-011 -1.12606e-011
25
root  80.317 40.0659 22.9543 91.5374 -88.8168 -91.7664
RightUpLeg  -1.59328 -7.10911 -2.20739
RightLeg  6.4682 -5.84002 3.40783
RightFoot  -4.1064 0.15162 -2.9198
RightToes  1.16414e-010 0 -3.6325e-017
Spine  3.89348 0.659441 1.68798
Spine1  -0.505789 0.450741 2.20517
HEad  3.79499 4.11925 -1.22771
LeftShoulder1  3.88438 -6.66209 -32.1297
LeftArm  -40.8764 32.3627 15.4638
LeftForeArm  35.5009 -58.4054 -15.1213
LeftHand  -0.244104 0.0205437 5.32207
RightShoulder  0.31327 -1.56927 8.76876
RightArm  -18.6024 -0.762772 2.09587
RightForeArm  7.36906 1.41893 3.24581
RightHand  -1.11393 4.37168 -13.4667
LeftUpLeg  -3.67466 31.5783 10.0322
LeftLeg  13.9021 -27.6518 -10.8175
LeftFoot  -2.13569 0.056033 -0.40599
LeftToes  9.04034e-010 7.59002e-011 -1.12606e-011
26
root  80.3094 40.0703 22.9686 91.9724 -88.8455 -92.2419
RightUpLeg  -1.52057 -7.17444 -2.28803
RightLeg  6.4386 -5.76784 3.4499
RightFoot  -4.10082 0.153713 -2.9524
RightToes  1.16414e-010 0 -3.6325e-017
Spine  4.00635 0.787921 1.47134
Spine1  -0.657181 0.514109 2.58951
HEad  3.772 4.03029 -1.33692
LeftShoulder1  4.041 -6.93431 -32.6289
LeftArm  -41.3303 32.7951 15.7795
LeftForeArm  35.6486 -58.936 -15.4844
LeftHand  -0.244104 0.0205437 5.32207
RightShoulder  0.322549 -1.53574 8.98589
RightArm  -18.9789 -1.23699 2.19192
RightForeArm  6.68831 1.95015 3.20133
RightHand  -1.15679 4.46941 -13.8389
LeftUpLeg  -3.54002 31.3014 10.0526
LeftLeg  13.7435 -27.3947 -10.8022
LeftFoot  -2.12494 0.0563685 -0.411203
LeftToes  9.04034e-010 7.59002e-011 -1.12606e-011
27
root  80.303 40.0743 22.9845 93.8317 -88.851 -94.0646
RightUpLeg  -1.51249 -7.20669 -2.33232
RightLeg  6.35078 -5.71443 3.49301
RightFoot  -4.06555 0.155127 -2.97444
RightToes  1.16414e-010 0 -3.6325e-017
Spine  4.03622 0.837464 1.47181
Spine1  -0.751408 0.543326 2.6958
HEad  3.7505 3.90358 -1.38594
LeftShoulder1  4.30915 -7.31879 -33.7376
LeftArm  -41.9755 34.7957 15.8586
LeftForeArm  37.6363 -62.6937 -18.3793
LeftHand  -0.244104 0.0205437 5.32207
RightShoulder  0.372666 -1.29353 9.50011
RightArm  -19.3413 -1.97175 2.53095
RightForeArm  4.89231 2.89639 3.28222
RightHand  -1.19302 4.36789 -14.4007
LeftUpLeg  -3.52466 31.1483 10.0391
LeftLeg  13.6573 -27.2227 -10.8112
LeftFoot  -2.11586 0.0553337 -0.395122
LeftToes  9.04034e-010 7.59002e-011 -1.12606e-011
